<?xml version="1.0" encoding="UTF-8"?>
<svg id="_Слой_2" data-name="Слой 2" xmlns="http://www.w3.org/2000/svg" viewBox="0 0 27.53 30.84">
  <defs>
    <style>
      .cls-1 {
        fill: none;
        stroke: #5683c3;
        stroke-miterlimit: 10;
        stroke-width: .25px;
      }
    </style>
  </defs>
  <g id="Layer_1" data-name="Layer 1">
    <g>
      <g>
        <polygon class="cls-1" points="12.12 11.02 10.52 13.95 13.55 13.95 15.14 11.02 12.12 11.02"/>
        <polygon class="cls-1" points="26.2 11.02 24.59 13.95 27.4 13.95 27.4 11.02 26.2 11.02"/>
        <path class="cls-1" d="M8.29,11.02c.54.84.6,1.9.13,2.78-.03.06-.07.1-.11.15h.55l1.59-2.93h-2.17Z"/>
        <polygon class="cls-1" points="16.8 11.02 15.21 13.95 18.24 13.95 19.83 11.02 16.8 11.02"/>
        <polygon class="cls-1" points="21.49 11.02 19.9 13.95 22.92 13.95 24.52 11.02 21.49 11.02"/>
      </g>
      <polygon class="cls-1" points="11.37 8.34 8.84 6.16 11.67 5.09 14.2 7.26 11.37 8.34"/>
      <polygon class="cls-1" points="24.54 3.33 21.98 1.16 24.62 .16 25.66 2.9 24.54 3.33"/>
      <polygon class="cls-1" points="15.75 6.67 13.22 4.5 16.05 3.42 18.58 5.59 15.75 6.67"/>
      <polygon class="cls-1" points="20.13 5 17.6 2.83 20.43 1.75 22.96 3.93 20.13 5"/>
      <path class="cls-1" d="M7.31,11.46l-1.72-2.5c-.3-.44-.79-.7-1.32-.7H1.73c-.88,0-1.6.72-1.6,1.6v2.5c0,.88.72,1.6,1.6,1.6h4.26c1.29,0,2.05-1.44,1.32-2.51ZM1.89,13.17c-.45,0-.81-.36-.81-.81s.36-.81.81-.81.81.36.81.81-.36.81-.81.81ZM1.89,10.77c-.45,0-.81-.36-.81-.81s.36-.81.81-.81.81.36.81.81-.36.81-.81.81ZM5.81,13.17c-.45,0-.81-.36-.81-.81s.36-.81.81-.81.81.36.81.81-.36.81-.81.81Z"/>
      <g>
        <path class="cls-1" d="M1.62,15.1v15.61h24.37v-15.61H1.62ZM13.66,28.86c-3.22,0-5.82-2.59-5.82-5.8s2.6-5.84,5.82-5.84,5.83,2.61,5.83,5.84-2.62,5.8-5.83,5.8Z"/>
        <polygon class="cls-1" points="16.91 23.28 11.43 20.61 11.43 25.57 16.91 23.28"/>
      </g>
      <path class="cls-1" d="M6.27,8.04l1.32,1.73,2.22-.84-2.53-2.17-1.77.67c.28.16.55.35.76.62Z"/>
    </g>
  </g>
</svg>