<?xml version="1.0" encoding="UTF-8"?>
<svg id="_Слой_2" data-name="Слой 2" xmlns="http://www.w3.org/2000/svg" viewBox="0 0 33.8 28.78">
  <defs>
    <style>
      .cls-1 {
        fill: none;
        stroke: #5683c3;
        stroke-miterlimit: 10;
        stroke-width: .25px;
      }
    </style>
  </defs>
  <g id="Layer_1" data-name="Layer 1">
    <path class="cls-1" d="M27.05,27.49c.04.31.31.6.09.82-.22.22-.54.34-.89.34H7.56c-.35,0-.67-.13-.89-.35-.22-.22.04-.51.09-.82,0,0,8.36.37,8.36-2.65,0-.28,0-.75.01-1.03h3.57c.02.35.03.87.03,1.16,0,2.29,8.33,2.52,8.33,2.52ZM33.67,1.15v21.05c0,.57-.46,1.03-1.03,1.03H1.15c-.57,0-1.03-.46-1.03-1.03V1.15C.12.59.59.12,1.15.12h31.49c.57,0,1.03.46,1.03,1.03ZM25.44,21.47c0-.29-.24-.53-.53-.53s-.53.24-.53.53.24.53.53.53.53-.24.53-.53ZM27.9,21.47c0-.29-.24-.53-.53-.53s-.53.24-.53.53.24.53.53.53.53-.24.53-.53ZM30.36,21.47c0-.29-.24-.53-.53-.53s-.53.24-.53.53.24.53.53.53.53-.24.53-.53ZM31.03,2.57s-.02-.04-.05-.04H2.82s-.05.02-.05.04v17.12h28.27V2.57Z"/>
  </g>
</svg>