<?xml version="1.0" encoding="UTF-8"?>
<svg id="_Слой_2" data-name="Слой 2" xmlns="http://www.w3.org/2000/svg" viewBox="0 0 34.47 22.14">
  <defs>
    <style>
      .cls-1 {
        fill: none;
        stroke: #e65edc;
        stroke-linecap: round;
        stroke-linejoin: round;
        stroke-width: .25px;
      }
    </style>
  </defs>
  <g id="Layer_1" data-name="Layer 1">
    <g>
      <g>
        <polygon class="cls-1" points="18.38 4.77 18.38 13.1 27.42 18.19 27.42 .12 18.38 4.77"/>
        <polygon class="cls-1" points="17.07 4.24 15.63 4.24 15.63 5.27 1.94 5.27 1.94 12.34 4.99 12.34 3.77 22.02 7.96 22.02 9.49 12.34 15.63 12.34 15.63 13.49 17.07 13.49 17.07 12.34 17.12 12.34 17.12 5.27 17.07 5.27 17.07 4.24"/>
        <rect class="cls-1" x=".12" y="6.16" width="1.75" height="5.23"/>
      </g>
      <path class="cls-1" d="M32.1,3.63l-1.28,1.15s4.05,4.01,0,8.7l1.2,1.16s5.17-5.23.08-11.02Z"/>
      <path class="cls-1" d="M30,5.72l-1.09,1.01s2.31,2.21,0,4.85l1.09,1.08s3.25-3.33,0-6.94Z"/>
    </g>
  </g>
</svg>