<?xml version="1.0" encoding="UTF-8"?>
<svg id="_Слой_2" data-name="Слой 2" xmlns="http://www.w3.org/2000/svg" viewBox="0 0 24.04 29.59">
  <defs>
    <style>
      .cls-1 {
        fill: none;
        stroke: #5683c3;
        stroke-miterlimit: 10;
        stroke-width: .25px;
      }
    </style>
  </defs>
  <g id="Layer_1" data-name="Layer 1">
    <g>
      <polygon class="cls-1" points="12.18 20.09 14.32 17.73 10.25 17.73 12.18 20.09"/>
      <path class="cls-1" d="M21.05.16s-6.4,1.52-8.57,1.54C10.13,1.71,3.2.16,3.2.16v14.49h17.86V.16ZM14.85,11.67l-2.72-1.43-2.73,1.43.53-3.03-2.21-2.15,3.05-.44,1.36-2.76,1.36,2.76,3.05.44-2.21,2.15.52,3.03Z"/>
      <path class="cls-1" d="M21.95,10.21v5.54H2.1v-5.54H.12v7.52h6.66c.05.15.12.29.24.42l3.28,4.03-4.22,4.67c-.52.57-.47,1.44.1,1.96.56.52,1.46.47,1.97-.1l3.92-4.34,3.72,4.57c.48.6,1.35.69,1.96.21.6-.48.68-1.37.2-1.95l-4-4.92,3.51-3.88c.18-.19.28-.43.33-.67h6.12v-7.52h-1.97ZM12.18,20.09l-1.93-2.36h4.07l-2.14,2.36Z"/>
    </g>
  </g>
</svg>